<svg xmlns="http://www.w3.org/2000/svg" width="24" height="24" viewBox="0 0 24 24">
    <path fill="#ED1D24" fill-rule="evenodd" d="M21.646 2.707H2.004a.794.794 0 0 1-.85-.727.785.785 0 0 1 .85-.821h19.645a.793.793 0 0 1 .85.726.785.785 0 0 1-.85.822h-.003zm-7.397 9.002c-.34.413-.524.925-.523 1.452v7.77c0 1.054-.883 1.907-1.974 1.907-1.09 0-1.973-.853-1.973-1.906V13.16a2.273 2.273 0 0 0-.52-1.452l-6.453-7.84h17.89l-6.447 7.84zM21.65 0H2.004C.898 0 0 .865 0 1.933a1.93 1.93 0 0 0 1.159 1.755l-.021.018L8.32 12.44c.167.205.258.459.258.72v7.77c0 1.695 1.422 3.069 3.177 3.069 1.754 0 3.176-1.374 3.176-3.068V13.16c0-.263.092-.518.262-.723l7.155-8.683c1.041-.36 1.583-1.467 1.21-2.473C23.273.505 22.505-.01 21.65 0z"/>
</svg>
